<svg width="147" height="59" viewBox="0 0 147 59" fill="none" xmlns="http://www.w3.org/2000/svg">
<path d="M37.2075 1.893L31.4484 0.350769L26.5952 18.4526L22.2136 2.11014L16.4544 3.65238L21.1885 21.3092L9.3971 9.52488L5.18114 13.7383L18.1148 26.6644L2.00799 22.3511L0.464844 28.1067L18.0635 32.8195C17.862 31.951 17.7554 31.046 17.7554 30.1161C17.7554 23.5343 23.0942 18.1987 29.68 18.1987C36.2658 18.1987 41.6046 23.5343 41.6046 30.1161C41.6046 31.04 41.4993 31.9394 41.3003 32.8028L57.2942 37.0858L58.8373 31.3302L41.1686 26.5987L57.2765 22.2851L55.7333 16.5295L38.0654 21.2607L49.8567 9.4765L45.6407 5.26306L32.8865 18.0097L37.2075 1.893Z" fill="#1F2A9D"/>
<path d="M41.2849 32.8698C40.7911 34.9561 39.7487 36.8303 38.3184 38.3319L49.9053 49.912L54.1212 45.6986L41.2849 32.8698Z" fill="#1F2A9D"/>
<path d="M38.2009 38.4531C36.7534 39.9307 34.924 41.0334 32.8726 41.6016L37.0888 57.3275L42.8479 55.7852L38.2009 38.4531Z" fill="#1F2A9D"/>
<path d="M32.6574 41.6591C31.7056 41.9037 30.708 42.0336 29.6799 42.0336C28.5785 42.0336 27.5119 41.8843 26.4994 41.605L22.2793 57.3452L28.0383 58.8873L32.6574 41.6591Z" fill="#1F2A9D"/>
<path d="M26.2957 41.5469C24.2756 40.9504 22.4787 39.8337 21.0607 38.3518L9.44531 49.9603L13.6613 54.1738L26.2957 41.5469Z" fill="#1F2A9D"/>
<path d="M20.9642 38.2492C19.5705 36.758 18.5553 34.9088 18.072 32.8548L2.02588 37.1518L3.56902 42.9074L20.9642 38.2492Z" fill="#1F2A9D"/>
<path d="M71.5284 45V15.9091H90.7898V20.9801H77.679V27.9119H89.5114V32.983H77.679V45H71.5284ZM100.513 32.3864V45H94.4616V23.1818H100.229V27.0312H100.484C100.967 25.7623 101.777 24.7585 102.913 24.0199C104.05 23.2718 105.428 22.8977 107.047 22.8977C108.562 22.8977 109.883 23.2292 111.01 23.892C112.137 24.5549 113.013 25.5019 113.638 26.733C114.263 27.9545 114.575 29.4129 114.575 31.108V45H108.524V32.1875C108.534 30.8523 108.193 29.8106 107.501 29.0625C106.81 28.3049 105.858 27.9261 104.646 27.9261C103.832 27.9261 103.112 28.1013 102.487 28.4517C101.872 28.8021 101.389 29.3134 101.038 29.9858C100.697 30.6487 100.522 31.4489 100.513 32.3864ZM129.771 45H119.458V15.9091H129.856C132.782 15.9091 135.301 16.4915 137.413 17.6562C139.524 18.8116 141.148 20.4735 142.285 22.642C143.431 24.8106 144.004 27.4053 144.004 30.4261C144.004 33.4564 143.431 36.0606 142.285 38.2386C141.148 40.4167 139.515 42.0881 137.384 43.2528C135.263 44.4176 132.725 45 129.771 45ZM125.609 39.7301H129.515C131.333 39.7301 132.862 39.4081 134.103 38.7642C135.353 38.1108 136.29 37.1023 136.915 35.7386C137.55 34.3655 137.867 32.5947 137.867 30.4261C137.867 28.2765 137.55 26.5199 136.915 25.1562C136.29 23.7926 135.358 22.7888 134.117 22.1449C132.877 21.5009 131.347 21.179 129.529 21.179H125.609V39.7301Z" fill="#1F2A9D"/>
</svg>
